<?xml version="1.0" standalone="no"?>
<!DOCTYPE svg PUBLIC "-//W3C//DTD SVG 20010904//EN"
 "http://www.w3.org/TR/2001/REC-SVG-20010904/DTD/svg10.dtd">
<svg version="1.0" xmlns="http://www.w3.org/2000/svg"
 width="641.000000pt" height="121.000000pt" viewBox="0 0 641.000000 121.000000"
 preserveAspectRatio="xMidYMid meet">
<metadata>
Created by potrace 1.16, written by Peter Selinger 2001-2019
</metadata>
<g transform="translate(0.000000,121.000000) scale(0.100000,-0.100000)"
fill="#000000" stroke="none">
<path d="M5360 690 c0 -310 4 -336 59 -364 16 -9 50 -16 76 -16 l45 0 0 55 c0
51 -2 55 -24 55 -13 0 -27 7 -30 16 -3 9 -6 132 -6 275 l0 259 -60 0 -60 0 0
-280z"/>
<path d="M5647 948 c-9 -7 -20 -27 -23 -45 -5 -26 -1 -37 19 -57 15 -14 36
-26 47 -26 24 0 61 18 72 34 14 21 8 73 -10 89 -22 20 -81 22 -105 5z"/>
<path d="M311 909 c-257 -101 -253 -491 5 -589 82 -31 206 -25 280 12 60 32
119 94 147 157 29 64 29 188 0 252 -28 63 -87 125 -147 157 -72 37 -207 42
-285 11z m245 -135 c104 -84 105 -235 1 -318 -32 -26 -48 -31 -105 -34 -60 -3
-72 0 -113 26 -119 77 -119 257 0 334 41 26 53 29 113 26 57 -3 73 -8 104 -34z"/>
<path d="M2550 865 l0 -54 146 -3 146 -3 -151 -189 -151 -190 0 -58 0 -58 235
0 235 0 0 55 0 54 -157 3 -156 3 151 190 152 190 0 58 0 57 -225 0 -225 0 0
-55z"/>
<path d="M1050 759 c-19 -12 -38 -27 -42 -33 -4 -6 -8 1 -8 17 0 26 -1 27 -60
27 l-60 0 0 -330 0 -330 60 0 60 0 0 127 0 126 23 -20 c36 -34 63 -43 119 -43
65 0 125 26 161 69 30 36 57 117 57 171 0 54 -27 135 -57 171 -57 67 -182 91
-253 48z m120 -104 c38 -19 60 -63 60 -115 0 -75 -49 -130 -115 -130 -85 0
-142 108 -100 190 33 64 95 86 155 55z"/>
<path d="M1575 761 c-108 -49 -159 -175 -122 -302 30 -101 112 -158 228 -159
87 0 163 37 196 96 33 58 31 64 -28 64 -43 0 -57 -5 -86 -30 -27 -24 -43 -30
-81 -30 -27 0 -57 7 -70 16 -19 13 -52 63 -52 79 0 3 79 5 176 5 l177 0 -7 63
c-8 70 -44 145 -84 174 -63 46 -175 57 -247 24z m173 -106 c16 -14 32 -34 35
-45 5 -19 0 -20 -109 -20 l-115 0 16 29 c21 42 53 61 101 61 31 0 51 -7 72
-25z"/>
<path d="M2185 765 c-16 -9 -36 -23 -42 -32 -11 -15 -13 -14 -13 10 0 26 -2
27 -55 27 l-55 0 0 -230 0 -230 60 0 60 0 0 140 c0 155 9 187 55 208 39 18 54
15 86 -17 l29 -29 0 -151 0 -151 60 0 60 0 0 178 c0 194 -7 224 -64 266 -36
27 -139 33 -181 11z"/>
<path d="M3205 761 c-108 -49 -159 -175 -122 -302 30 -101 112 -158 228 -159
87 0 163 37 196 96 33 58 31 64 -28 64 -43 0 -57 -5 -86 -30 -27 -24 -43 -30
-81 -30 -27 0 -57 7 -70 16 -19 13 -52 63 -52 79 0 3 79 5 176 5 l177 0 -7 63
c-8 70 -44 145 -84 174 -63 46 -175 57 -247 24z m181 -115 c19 -19 34 -39 34
-45 0 -7 -38 -11 -115 -11 l-116 0 16 29 c21 42 53 61 103 61 37 0 50 -6 78
-34z"/>
<path d="M3840 773 c-8 -3 -27 -15 -42 -25 -28 -19 -28 -19 -28 1 0 19 -6 21
-60 21 l-60 0 0 -330 0 -330 60 0 60 0 0 119 0 120 43 -24 c69 -40 182 -30
240 23 53 48 84 161 68 249 -21 115 -101 184 -211 182 -30 0 -62 -3 -70 -6z
m101 -119 c77 -40 76 -189 -2 -229 -83 -43 -169 15 -169 115 0 101 86 159 171
114z"/>
<path d="M4430 773 c-8 -3 -27 -15 -42 -25 -28 -19 -28 -19 -28 1 0 19 -6 21
-60 21 l-60 0 0 -330 0 -330 60 0 60 0 0 121 0 120 33 -23 c27 -19 45 -23 108
-23 66 0 81 3 118 28 90 59 123 224 69 333 -37 73 -91 108 -176 111 -37 1 -74
0 -82 -4z m99 -118 c16 -8 36 -30 45 -49 56 -118 -46 -237 -154 -181 -79 41
-80 187 -2 229 35 19 76 20 111 1z"/>
<path d="M4948 770 c-86 -26 -139 -106 -146 -219 -4 -69 -1 -81 25 -131 41
-78 92 -111 180 -117 85 -6 143 9 190 50 30 26 63 80 63 102 0 3 -27 5 -60 5
-34 0 -60 -4 -60 -10 0 -20 -65 -50 -108 -50 -37 0 -50 6 -78 34 -63 63 -56
66 136 66 l170 0 0 58 c-1 96 -49 172 -132 206 -39 17 -135 20 -180 6z m163
-119 c53 -54 43 -61 -81 -61 -73 0 -110 4 -110 11 0 6 15 26 34 45 29 29 41
34 81 34 38 0 52 -5 76 -29z"/>
<path d="M6060 769 c-13 -6 -33 -17 -42 -26 -17 -15 -18 -15 -18 5 0 20 -5 22
-55 22 l-55 0 0 -230 0 -230 60 0 60 0 0 149 c0 141 1 151 23 175 12 15 36 29
54 32 27 5 37 1 63 -24 l30 -30 0 -151 0 -151 60 0 60 0 0 173 c0 159 -2 176
-22 217 -14 27 -36 50 -58 62 -38 20 -119 23 -160 7z"/>
<path d="M5640 540 l0 -230 60 0 60 0 0 230 0 230 -60 0 -60 0 0 -230z"/>
</g>
</svg>
