<?xml version="1.0" standalone="no"?>
<!DOCTYPE svg PUBLIC "-//W3C//DTD SVG 20010904//EN"
 "http://www.w3.org/TR/2001/REC-SVG-20010904/DTD/svg10.dtd">
<svg version="1.0" xmlns="http://www.w3.org/2000/svg"
 width="320.000000pt" height="320.000000pt" viewBox="0 0 320.000000 320.000000"
 preserveAspectRatio="xMidYMid meet">
<metadata>
Created by potrace 1.16, written by Peter Selinger 2001-2019
</metadata>
<g transform="translate(0.000000,320.000000) scale(0.100000,-0.100000)"
fill="#000000" stroke="none">
<path d="M1310 3160 c-385 -70 -742 -293 -930 -580 -104 -159 -159 -294 -201
-490 -30 -140 -33 -426 -6 -570 54 -291 181 -526 401 -745 198 -196 396 -333
682 -472 162 -78 184 -94 167 -121 -24 -40 -155 -20 -363 55 -248 89 -465 207
-635 344 -87 71 -89 72 -56 29 58 -76 233 -242 316 -302 737 -523 1746 -308
2217 472 108 179 179 384 213 610 6 43 5 42 -37 -40 -24 -47 -63 -111 -87
-143 -215 -283 -663 -369 -1132 -216 -122 39 -350 152 -464 228 -307 206 -524
489 -608 791 -31 114 -31 364 1 474 66 229 218 408 436 515 322 159 676 142
1046 -50 172 -90 312 -228 390 -385 73 -146 85 -275 39 -400 -31 -83 -140
-192 -224 -223 -89 -34 -176 -44 -271 -31 -341 45 -624 309 -624 584 0 80 28
163 71 208 49 52 75 49 71 -7 -1 -22 -4 -78 -5 -125 -2 -77 1 -90 27 -137 82
-149 253 -243 442 -243 150 0 241 57 278 173 33 106 -2 206 -110 306 -123 116
-316 188 -524 198 -185 9 -283 -26 -380 -135 -28 -32 -67 -90 -87 -130 -32
-64 -37 -85 -41 -162 -8 -164 51 -292 208 -450 156 -158 347 -272 538 -321
476 -122 843 80 845 466 2 199 -112 422 -325 637 -173 174 -307 258 -529 332
-172 57 -235 67 -449 72 -162 3 -213 0 -300 -16z"/>
</g>
</svg>
