 <svg version="1.0" xmlns="http://www.w3.org/2000/svg" width="700.000000pt" height="700.000000pt" viewBox="0 0 700.000000 700.000000" preserveAspectRatio="xMidYMid meet">
<metadata>
Created by potrace 1.12, written by Peter Selinger 2001-2015
</metadata>
<g transform="translate(0.000000,700.000000) scale(0.100000,-0.100000)" fill="#000000" stroke="none">
<path d="M2055 6400 c-287 -44 -462 -253 -542 -646 -26 -126 -25 -556 0 -729
17 -113 71 -389 82 -417 4 -9 -23 -22 -87 -42 -395 -120 -749 -299 -973 -493
-199 -172 -302 -349 -312 -538 -7 -110 10 -186 66 -300 156 -316 592 -613
1190 -810 110 -36 113 -38 107 -64 -30 -140 -57 -284 -71 -371 -23 -142 -32
-528 -15 -657 50 -399 233 -664 501 -728 83 -19 250 -19 347 1 329 67 726 293
1067 608 l90 83 60 -55 c387 -353 754 -571 1075 -637 109 -23 264 -23 350 0
227 59 386 246 465 548 43 164 50 238 49 492 -1 256 -15 393 -70 644 -13 63
-23 115 -22 115 2 1 62 21 133 45 722 238 1193 630 1222 1017 15 191 -73 372
-271 562 -209 200 -539 378 -946 513 -79 26 -146 52 -148 57 -1 5 11 76 27
158 53 261 65 378 65 629 0 246 -12 345 -60 512 -64 221 -198 397 -354 465
-133 57 -331 63 -510 13 -298 -82 -636 -290 -984 -603 l-88 -81 -102 91 c-482
433 -997 670 -1341 618z m2883 -282 c67 -17 134 -84 182 -181 125 -254 134
-657 28 -1175 -21 -102 -21 -103 -46 -97 -141 35 -489 93 -721 119 -119 14
-136 18 -150 38 -101 147 -297 393 -501 630 l-35 41 75 69 c258 242 576 448
816 527 142 48 245 56 352 29z m-2651 -4 c264 -54 577 -235 911 -527 56 -49
102 -91 102 -94 0 -2 -46 -57 -103 -121 -154 -176 -350 -421 -437 -550 -14
-20 -32 -24 -189 -42 -182 -21 -476 -68 -619 -99 -45 -10 -84 -15 -87 -12 -9
16 -66 319 -81 436 -22 176 -22 449 1 579 64 368 207 491 502 430z m1252 -866
c90 -99 341 -407 341 -419 0 -2 -173 -4 -385 -4 -212 0 -385 1 -385 3 0 13
375 462 386 462 2 0 21 -19 43 -42z m221 -698 c157 -6 297 -13 312 -16 22 -4
47 -38 136 -177 170 -269 271 -443 417 -722 l68 -130 -73 -145 c-121 -242
-272 -505 -443 -772 l-81 -126 -126 -9 c-159 -10 -843 -10 -973 1 l-98 8 -68
101 c-151 226 -329 533 -456 786 l-76 153 99 191 c122 235 248 454 387 672 94
146 110 165 138 170 18 4 136 10 262 14 127 4 244 9 260 9 17 1 158 -3 315 -8z
m-1288 -161 c-64 -104 -205 -348 -275 -478 l-45 -84 -17 39 c-61 143 -185 488
-185 515 0 13 32 23 163 48 205 40 411 70 415 61 2 -4 -23 -50 -56 -101z
m2163 81 c173 -27 398 -71 408 -80 11 -10 -151 -462 -194 -543 -9 -15 -28 13
-118 175 -59 106 -144 253 -189 326 -45 73 -82 137 -82 141 0 5 10 7 23 5 12
-2 81 -13 152 -24z m-2926 -252 c52 -160 126 -357 208 -547 l74 -174 -69 -161
c-75 -174 -170 -423 -222 -578 -17 -54 -35 -98 -39 -98 -18 0 -233 75 -332
115 -285 116 -490 244 -650 404 -81 81 -113 122 -139 175 -59 120 -53 222 22
338 109 168 363 348 683 485 125 53 380 141 410 142 18 1 26 -15 54 -101z
m3771 53 c381 -127 663 -283 846 -465 195 -196 215 -343 71 -531 -127 -167
-383 -341 -692 -470 -108 -46 -366 -138 -370 -133 -2 2 -19 53 -40 113 -53
156 -157 416 -231 578 l-63 138 56 127 c92 212 190 468 258 680 6 17 5 17 165
-37z m-621 -1128 c65 -141 207 -530 198 -539 -14 -14 -521 -104 -584 -104 -17
0 -1 32 101 203 67 111 153 262 191 334 39 73 73 133 76 133 3 0 11 -12 18
-27z m-2633 -110 c38 -71 124 -220 192 -332 67 -113 122 -206 122 -207 0 -3
-6 -2 -209 26 -167 23 -364 59 -380 69 -19 12 181 571 203 571 2 0 35 -57 72
-127z m2923 -740 c71 -274 101 -688 67 -923 -33 -222 -110 -390 -209 -457 -67
-45 -141 -59 -248 -45 -268 33 -605 222 -961 540 -84 74 -96 88 -84 102 204
237 371 449 495 626 l42 61 77 7 c202 18 574 75 717 110 90 22 93 21 104 -21z
m-3109 -7 c169 -31 380 -61 530 -75 191 -19 168 -7 266 -139 110 -147 258
-331 360 -446 131 -147 127 -122 32 -209 -472 -425 -984 -642 -1227 -517 -168
85 -263 426 -232 837 12 154 43 366 77 511 15 66 19 73 38 68 11 -3 82 -16
156 -30z m1772 -220 c-84 -112 -258 -321 -290 -349 -19 -18 -22 -16 -119 95
-107 123 -161 187 -240 289 l-52 65 389 1 388 0 -76 -101z"></path>
<path d="M3370 4074 c-106 -22 -204 -77 -285 -158 -311 -311 -187 -823 234
-968 55 -19 86 -23 181 -22 98 0 125 4 182 26 152 57 267 158 332 290 115 232
73 492 -109 673 -143 144 -338 202 -535 159z"></path>
</g>
</svg>