<?xml version="1.0" standalone="no"?>
<!DOCTYPE svg PUBLIC "-//W3C//DTD SVG 20010904//EN"
 "http://www.w3.org/TR/2001/REC-SVG-20010904/DTD/svg10.dtd">
<svg version="1.0" xmlns="http://www.w3.org/2000/svg"
 width="1200.000000pt" height="1862.000000pt" viewBox="0 0 1200.000000 1862.000000"
 preserveAspectRatio="xMidYMid meet">
<metadata>
Created by potrace 1.16, written by Peter Selinger 2001-2019
</metadata>
<g transform="translate(0.000000,1862.000000) scale(0.100000,-0.100000)"
fill="#000000" stroke="none">
<path d="M1491 15963 c-1269 -2256 -1492 -2660 -1485 -2680 20 -50 2980 -5303
2987 -5300 5 1 680 1197 1502 2657 l1493 2655 2992 3 c1678 1 2990 6 2988 11
-2 4 -673 1201 -1493 2659 l-1490 2651 -3000 1 -3000 0 -1494 -2657z"/>
<path d="M8988 10618 c-8 -13 -682 -1210 -1497 -2660 l-1483 -2638 -2989 0
c-1644 0 -2989 -2 -2989 -5 0 -3 672 -1200 1492 -2660 l1493 -2655 3000 0
3000 1 1485 2640 c817 1451 1489 2650 1494 2663 7 19 -206 404 -1479 2667
-818 1454 -1493 2650 -1500 2657 -10 11 -15 9 -27 -10z"/>
</g>
</svg>
